<?xml version="1.0" standalone="no"?><!DOCTYPE svg PUBLIC "-//W3C//DTD SVG 1.1//EN" "http://www.w3.org/Graphics/SVG/1.1/DTD/svg11.dtd"><svg t="1555516526360" class="icon" style="" viewBox="0 0 1024 1024" version="1.1" xmlns="http://www.w3.org/2000/svg" p-id="2746" xmlns:xlink="http://www.w3.org/1999/xlink" width="200" height="200"><defs><style type="text/css"></style></defs><path d="M426.666667 170.666667 426.666667 298.666667 768 298.666667 768 170.666667 426.666667 170.666667M341.333333 85.333333 853.333333 85.333333 896 85.333333 896 128 853.333333 170.666667 853.333333 853.333333 896 896 896 938.666667 853.333333 938.666667 341.333333 938.666667 298.666667 938.666667 298.666667 896 341.333333 853.333333 341.333333 793.6 179.2 718.08C149.333333 704 128 674.986667 128 640L128 341.333333C128 294.4 166.4 256 213.333333 256L341.333333 256 341.333333 170.666667 298.666667 128 298.666667 85.333333 341.333333 85.333333M213.333333 640 341.333333 699.306667 341.333333 341.333333 213.333333 341.333333 213.333333 640Z" p-id="2747"></path></svg>