<?xml version="1.0" standalone="no"?><!DOCTYPE svg PUBLIC "-//W3C//DTD SVG 1.1//EN" "http://www.w3.org/Graphics/SVG/1.1/DTD/svg11.dtd"><svg t="1548677156208" class="icon" style="" viewBox="0 0 1024 1024" version="1.1" xmlns="http://www.w3.org/2000/svg" p-id="2671" xmlns:xlink="http://www.w3.org/1999/xlink" width="200" height="200"><defs><style type="text/css"></style></defs><path d="M170.666667 682.666667c-93.866667 0-170.666667-76.8-170.666667-170.666667 0-76.8 110.933333-345.6 132.266667-401.066667C136.533333 93.866667 153.6 85.333333 170.666667 85.333333s34.133333 8.533333 38.4 25.6C230.4 166.4 341.333333 435.2 341.333333 512 341.333333 605.866667 264.533333 682.666667 170.666667 682.666667zM170.666667 243.2C128 358.4 85.333333 477.866667 85.333333 512c0 46.933333 38.4 85.333333 85.333333 85.333333s85.333333-38.4 85.333333-85.333333C256 477.866667 213.333333 358.4 170.666667 243.2z" p-id="2672"></path><path d="M853.333333 682.666667c-93.866667 0-170.666667-76.8-170.666667-170.666667 0-76.8 110.933333-345.6 132.266667-401.066667C819.2 93.866667 836.266667 85.333333 853.333333 85.333333s34.133333 8.533333 38.4 25.6C913.066667 166.4 1024 435.2 1024 512 1024 605.866667 947.2 682.666667 853.333333 682.666667zM853.333333 243.2c-42.666667 110.933333-85.333333 234.666667-85.333333 268.8 0 46.933333 38.4 85.333333 85.333333 85.333333s85.333333-38.4 85.333333-85.333333C938.666667 477.866667 896 358.4 853.333333 243.2z" p-id="2673"></path><path d="M853.333333 170.666667 170.666667 170.666667C145.066667 170.666667 128 153.6 128 128s17.066667-42.666667 42.666667-42.666667l682.666667 0c25.6 0 42.666667 17.066667 42.666667 42.666667S878.933333 170.666667 853.333333 170.666667z" p-id="2674"></path><path d="M512 938.666667c-25.6 0-42.666667-17.066667-42.666667-42.666667L469.333333 128c0-25.6 17.066667-42.666667 42.666667-42.666667s42.666667 17.066667 42.666667 42.666667l0 768C554.666667 921.6 537.6 938.666667 512 938.666667z" p-id="2675"></path><path d="M768 938.666667 256 938.666667c-25.6 0-42.666667-17.066667-42.666667-42.666667s17.066667-42.666667 42.666667-42.666667l512 0c25.6 0 42.666667 17.066667 42.666667 42.666667S793.6 938.666667 768 938.666667z" p-id="2676"></path><path d="M298.666667 554.666667 42.666667 554.666667c-25.6 0-42.666667-17.066667-42.666667-42.666667s17.066667-42.666667 42.666667-42.666667l256 0c25.6 0 42.666667 17.066667 42.666667 42.666667S324.266667 554.666667 298.666667 554.666667z" p-id="2677"></path><path d="M981.333333 554.666667l-256 0c-25.6 0-42.666667-17.066667-42.666667-42.666667s17.066667-42.666667 42.666667-42.666667l256 0c25.6 0 42.666667 17.066667 42.666667 42.666667S1006.933333 554.666667 981.333333 554.666667z" p-id="2678"></path></svg>