<?xml version="1.0" standalone="no"?><!DOCTYPE svg PUBLIC "-//W3C//DTD SVG 1.1//EN" "http://www.w3.org/Graphics/SVG/1.1/DTD/svg11.dtd"><svg t="1557522185866" class="icon" style="" viewBox="0 0 1024 1024" version="1.1" xmlns="http://www.w3.org/2000/svg" p-id="1727" xmlns:xlink="http://www.w3.org/1999/xlink" width="200" height="200"><defs><style type="text/css"></style></defs><path d="M816 608h-15.712a301.504 301.504 0 0 1-16.64 39.888l11.2 11.2a64 64 0 0 1 0 90.512l-45.264 45.264a64 64 0 0 1-90.512 0l-11.2-11.2a302.4 302.4 0 0 1-39.888 16.64V816a64 64 0 0 1-64 64h-64a64 64 0 0 1-64-64v-15.712a302.4 302.4 0 0 1-39.888-16.64l-11.2 11.2a64 64 0 0 1-90.512 0l-45.264-45.264a64 64 0 0 1 0-90.512l11.2-11.2a302.4 302.4 0 0 1-16.64-39.888H208a64 64 0 0 1-64-64v-64a64 64 0 0 1 64-64h15.712a302.4 302.4 0 0 1 16.64-39.888l-11.2-11.2a64 64 0 0 1 0-90.512l45.264-45.264a64 64 0 0 1 90.512 0l11.2 11.2a302.4 302.4 0 0 1 39.888-16.64V208a64 64 0 0 1 64-64h64a64 64 0 0 1 64 64v15.712a301.504 301.504 0 0 1 39.888 16.64l11.2-11.2a64 64 0 0 1 90.512 0l45.264 45.264a64 64 0 0 1 0 90.512l-11.2 11.2a302.4 302.4 0 0 1 16.64 39.888H816a64 64 0 0 1 64 64v64A64 64 0 0 1 816 608z m32-128a32 32 0 0 0-32-32h-39.776a269.76 269.76 0 0 0-32.512-77.2l23.552-23.552 4.96-4.96a32 32 0 0 0 0-45.248l-45.264-45.248a32 32 0 0 0-45.248 0l-4.96 4.96-23.6 23.584A269.792 269.792 0 0 0 576 247.888V208a32 32 0 0 0-32-32h-64a32 32 0 0 0-32 32v39.888a269.792 269.792 0 0 0-77.152 32.448l-23.6-23.584-4.96-4.96a32 32 0 0 0-45.248 0l-45.248 45.248a32 32 0 0 0 0 45.248l4.96 4.96 23.536 23.552A269.76 269.76 0 0 0 247.776 448H208a32 32 0 0 0-32 32v64a32 32 0 0 0 32 32h39.776a269.76 269.76 0 0 0 32.512 77.2l-23.536 23.552-4.96 4.96a32 32 0 0 0 0 45.248l45.248 45.264a32 32 0 0 0 45.248 0l28.56-28.56A269.328 269.328 0 0 0 448 776.112V816a32 32 0 0 0 32 32h64a32 32 0 0 0 32-32v-39.888a269.328 269.328 0 0 0 77.152-32.448l28.56 28.56a32 32 0 0 0 45.248 0l45.264-45.264a32 32 0 0 0 0-45.248l-4.96-4.96-23.552-23.552A269.76 269.76 0 0 0 776.224 576H816a32 32 0 0 0 32-32v-64zM512 672a160 160 0 1 1 160-160 160 160 0 0 1-160 160z m0-288a128 128 0 1 0 128 128 128 128 0 0 0-128-128z m0 192a64 64 0 1 1 64-64 64 64 0 0 1-64 64z m0-96a32 32 0 1 0 32 32 32 32 0 0 0-32-32z" fill="#333333" p-id="1728"></path></svg>