<?xml version="1.0" standalone="no"?><!DOCTYPE svg PUBLIC "-//W3C//DTD SVG 1.1//EN" "http://www.w3.org/Graphics/SVG/1.1/DTD/svg11.dtd"><svg t="1552470097842" class="icon" style="" viewBox="0 0 1024 1024" version="1.1" xmlns="http://www.w3.org/2000/svg" p-id="1703" xmlns:xlink="http://www.w3.org/1999/xlink" width="200" height="200"><defs><style type="text/css"></style></defs><path d="M768.013965 703.999739a159.749941 159.749941 0 0 0-127.849953 63.799976L306.254136 576.999786a160.35994 160.35994 0 0 0 0-129.999952l333.909876-190.799929a159.529941 159.529941 0 1 0-27.539989-57.999979L268.80415 394.689854a159.999941 159.999941 0 1 0 0 234.619912l343.819873 196.459928A159.999941 159.999941 0 1 0 768.013965 703.999739z m0-639.999763a95.999964 95.999964 0 1 1-95.999964 95.999965 96.109964 96.109964 0 0 1 95.999964-95.999965zM277.364147 403.24985z m-2.769999-2.909999z m-2.849999-2.859999zM160.014191 607.999774a95.999964 95.999964 0 1 1 95.999964-95.999964 96.109964 96.109964 0 0 1-95.999964 95.999964z m111.699958 18.539993z m5.649998-5.789997z m-2.769999 2.919999zM768.013965 959.999644a95.999964 95.999964 0 1 1 95.999964-95.999965 96.109964 96.109964 0 0 1-95.999964 95.999965z" p-id="1704"></path></svg>