<?xml version="1.0" standalone="no"?><!DOCTYPE svg PUBLIC "-//W3C//DTD SVG 1.1//EN" "http://www.w3.org/Graphics/SVG/1.1/DTD/svg11.dtd"><svg t="1550140655111" class="icon" style="" viewBox="0 0 1024 1024" version="1.1" xmlns="http://www.w3.org/2000/svg" p-id="1723" xmlns:xlink="http://www.w3.org/1999/xlink" width="200" height="200"><defs><style type="text/css"></style></defs><path d="M896 768v42.666667c0 47.146667-38.186667 85.333333-85.333333 85.333333H213.333333c-47.146667 0-85.333333-38.186667-85.333333-85.333333V213.333333c0-47.146667 38.186667-85.333333 85.333333-85.333333h597.333334c47.146667 0 85.333333 38.186667 85.333333 85.333333v42.666667H512c-47.146667 0-85.333333 38.186667-85.333333 85.333333v341.333334c0 47.146667 38.186667 85.333333 85.333333 85.333333h384z m-384-85.333333h426.666667V341.333333H512v341.333334z m170.666667-106.666667c-35.413333 0-64-28.586667-64-64s28.586667-64 64-64 64 28.586667 64 64-28.586667 64-64 64z" p-id="1724"></path></svg>